HIERARCHY
ROOT Hips
{
	OFFSET -3.958830 18.904000 13.208200
	CHANNELS 6 Xposition Yposition Zposition Zrotation Yrotation Xrotation 
	JOINT LHipJoint
	{
		OFFSET 0.000000 0.000000 0.000000
		CHANNELS 3 Zrotation Yrotation Xrotation
		JOINT LeftUpLeg
		{
			OFFSET 1.800000 -1.400000 0.085000
			CHANNELS 3 Zrotation Yrotation Xrotation
			JOINT LeftLeg
			{
				OFFSET 2.215000 -6.000000 0.000000
				CHANNELS 3 Zrotation Yrotation Xrotation
				JOINT LeftFoot
				{
					OFFSET 2.500000 -6.900000 0.000000
					CHANNELS 3 Zrotation Yrotation Xrotation
					JOINT LeftToeBase
					{
						OFFSET 0.200000 -0.500000 1.950000
						CHANNELS 3 Zrotation Yrotation Xrotation
						End Site
						{
							OFFSET 0.000000 0.000000 0.000000
						}
					}
				}
			}
		}
	}
	JOINT RHipJoint
	{
		OFFSET 0.000000 0.000000 0.000000
		CHANNELS 3 Zrotation Yrotation Xrotation
		JOINT RightUpLeg
		{
			OFFSET -1.800000 -1.400000 0.085000
			CHANNELS 3 Zrotation Yrotation Xrotation
			JOINT RightLeg
			{
				OFFSET -2.215000 -6.000000 0.000000
				CHANNELS 3 Zrotation Yrotation Xrotation
				JOINT RightFoot
				{
					OFFSET -2.500000 -6.900000 0.000000
					CHANNELS 3 Zrotation Yrotation Xrotation
					JOINT RightToeBase
					{
						OFFSET -0.200000 -0.500000 1.950000
						CHANNELS 3 Zrotation Yrotation Xrotation
						End Site
						{
							OFFSET 0.000000 0.000000 0.000000
						}
					}
				}
			}
		}
	}
	JOINT LowerBack
	{
		OFFSET 0.000000 0.000000 0.000000
		CHANNELS 3 Zrotation Yrotation Xrotation
		JOINT Spine
		{
			OFFSET -0.087000 1.940000 -0.288900
			CHANNELS 3 Zrotation Yrotation Xrotation
			JOINT Spine1
			{
				OFFSET 0.000000 1.950000 0.060000
				CHANNELS 3 Zrotation Yrotation Xrotation
				JOINT Neck
				{
					OFFSET 0.000000 0.000000 0.000000
					CHANNELS 3 Zrotation Yrotation Xrotation
					JOINT Neck1
					{
						OFFSET 0.000000 1.600000 0.340000
						CHANNELS 3 Zrotation Yrotation Xrotation
						JOINT Head
						{
							OFFSET 0.000000 1.667000 -0.240000
							CHANNELS 3 Zrotation Yrotation Xrotation
							End Site
							{
								OFFSET 0.000000 0.000000 0.000000
							}
						}
					}
				}
				JOINT LeftShoulder
				{
					OFFSET 0.000000 0.000000 0.000000
					CHANNELS 3 Zrotation Yrotation Xrotation
					JOINT LeftArm
					{
						OFFSET 2.700000 1.550000 -0.730000
						CHANNELS 3 Zrotation Yrotation Xrotation
						JOINT LeftForeArm
						{
							OFFSET 5.450000 0.000000 0.000000
							CHANNELS 3 Zrotation Yrotation Xrotation
							JOINT LeftHand
							{
								OFFSET 3.450000 0.000000 0.000000
								CHANNELS 3 Zrotation Yrotation Xrotation
								JOINT LeftHandIndex1
								{
									OFFSET 0.750000 0.000000 0.000000
									CHANNELS 3 Zrotation Yrotation Xrotation
									End Site
									{
										OFFSET 0.000000 0.000000 0.000000
									}
								}
							}
						}
					}
				}
				JOINT RightShoulder
				{
					OFFSET 0.000000 0.000000 0.000000
					CHANNELS 3 Zrotation Yrotation Xrotation
					JOINT RightArm
					{
						OFFSET -2.700000 1.550000 -0.730000
						CHANNELS 3 Zrotation Yrotation Xrotation
						JOINT RightForeArm
						{
							OFFSET -5.450000 0.000000 0.000000
							CHANNELS 3 Zrotation Yrotation Xrotation
							JOINT RightHand
							{
								OFFSET -3.450000 0.000000 0.000000
								CHANNELS 3 Zrotation Yrotation Xrotation
								JOINT RightHandIndex1
								{
									OFFSET -0.750000 0.000000 0.000000
									CHANNELS 3 Zrotation Yrotation Xrotation
									End Site
									{
										OFFSET 0.000000 0.000000 0.000000
									}
								}
							}
						}
					}
				}
			}
		}
	}
}
MOTION
Frames: 4
Frame Time: 0.016667
-0.476010 13.359790 -1.088950 -35.145475 11.929930 13.331516 -15.598770 10.706895 7.436650 -41.143897 -15.919095 -30.902970 40.237229 -10.245573 60.615839 1.699285 11.786328 0.414775 0.449020 0.536110 0.464450 18.261958 -10.436106 1.229305 -8.287082 -1.344477 6.065573 -1.616408 -8.355877 41.400280 -1.338737 -6.697602 1.856487 0.159710 -0.322460 0.040940 -3.225603 -1.140970 -9.165064 17.017236 -3.555354 65.031752 -12.533958 4.766380 23.464421 12.524545 -8.901853 -22.234123 -19.041475 9.829248 52.057903 -2.628590 2.096350 -30.958550 -2.372585 -50.855821 20.798854 1.809294 -17.379614 -7.544097 21.123413 1.058077 -1.963317 -3.687928 2.845289 0.733040 -0.479620 0.592710 -0.044440 -19.065086 56.751874 -23.301554 -11.170742 28.083447 -17.409717 -19.318722 20.479482 -3.795827 3.424307 -1.319027 0.012470 0.349830 -0.046720 -0.050700 
-0.526730 13.337850 -1.007180 -35.016284 12.346112 11.776932 -15.528750 10.636659 7.365030 -41.559253 -15.105199 -29.911783 37.142877 -8.001689 58.024898 1.473993 10.786663 0.702122 0.457780 0.544740 0.462790 18.307306 -10.597208 1.216706 -9.556889 -0.437382 6.014746 -1.467907 -8.808530 44.670502 -1.425199 -7.160259 1.712190 0.157780 -0.320910 0.039820 -3.375944 -0.708214 -9.125708 16.879479 -3.069563 64.466078 -13.300062 5.088438 24.350504 12.518026 -8.759264 -21.867902 -18.063432 8.851300 51.029562 -1.599200 1.575910 -31.902670 -0.915465 -50.496828 20.291577 2.127487 -17.679110 -7.255596 20.209313 0.663424 -1.916648 -3.671145 2.835629 0.730390 -0.488250 0.590460 -0.036850 -20.526707 56.054394 -23.089894 -12.565183 26.643883 -18.605874 -22.343047 21.400222 -4.628912 3.493299 -1.377212 0.020660 0.347530 -0.056200 -0.043480 
-0.534470 13.286270 -0.937140 -36.709741 14.331868 10.118878 -15.403030 10.459897 7.200882 -40.560278 -14.552525 -28.860060 31.588035 -5.418495 56.817785 1.250718 9.776879 1.014730 0.436490 0.547170 0.404880 18.429065 -10.742355 1.330228 -8.938014 0.220296 5.373274 -0.721967 -9.745804 48.286698 -1.549527 -7.720415 1.550226 0.150260 -0.275980 0.049010 -3.726371 -0.003463 -9.141636 20.286711 -5.330543 62.784486 -15.244233 3.727050 25.253533 12.759713 -8.279579 -21.460905 -16.624101 8.054197 50.147170 -0.682390 1.003580 -31.792000 -1.273028 -50.520556 20.501619 1.685051 -17.426303 -6.690240 19.045819 -0.104792 -1.819921 -3.633074 2.838322 0.699440 -0.467860 0.579230 -0.010210 -20.845160 54.735178 -22.396229 -14.505377 26.689893 -19.501730 -24.078734 21.840144 -5.082294 3.510334 -1.410846 0.031980 0.359830 -0.047160 -0.004630 
-0.536230 13.246600 -0.856540 -39.211347 15.315620 7.944954 -15.262185 10.428975 6.871277 -38.483084 -13.617812 -28.471906 26.576946 -3.019930 56.390224 1.101081 9.107215 1.217961 0.425470 0.535990 0.394900 18.542172 -10.887230 1.510515 -8.096948 1.380461 4.172983 0.205175 -10.680289 52.195621 -1.680825 -8.288613 1.383644 0.124490 -0.273360 0.054520 -4.077019 0.625936 -9.108846 23.845027 -7.635982 61.895765 -17.827231 2.743336 24.906745 13.153345 -7.725959 -20.970712 -15.801971 7.656177 50.424440 -0.773120 0.592930 -31.653660 -3.120773 -50.044834 20.388310 1.357497 -17.150846 -6.063677 17.934765 -0.437158 -1.676140 -3.570872 2.831637 0.685850 -0.468120 0.576780 -0.011070 -20.251808 53.848106 -21.303813 -15.611922 27.236056 -19.968385 -25.530251 22.613409 -5.498340 3.530900 -1.407082 0.051590 0.349000 -0.044780 0.008240 
